<?xml version="1.0" encoding="UTF-8" standalone="no"?>
<svg 
    role="img" 
    xmlns="http://www.w3.org/2000/svg" 
    width="1000mm"
    height="1000mm"
    viewBox="0 0 1000 1000"
    style="max-width:1.6em; height: auto;">
    
    <path 
        id="path" 
        style="opacity:1;vector-effect:none;fill:#000000;fill-opacity:1;"
        d=" M 745 108C 779 107 811 120 835 142C 858 164 872 195 872 230C 871 264 855 301 823 333C 823 333 423 733 423 733C 423 734 422 734 422 734C 399 755 372 765 347 763C 321 762 300 749 284 732C 253 698 247 639 288 598C 288 598 613 273 613 273C 619 267 628 264 637 266C 646 269 652 275 655 284C 657 293 654 302 648 308C 648 308 323 633 323 633C 300 656 306 682 321 699C 329 707 339 713 350 713C 361 714 373 711 388 697C 388 697 788 298 788 298C 813 273 821 249 822 229C 822 209 814 191 800 178C 773 152 724 143 675 188C 675 188 223 634 223 634C 156 699 169 768 210 810C 252 851 320 865 388 798C 388 798 813 373 813 373C 819 367 828 364 837 366C 846 369 852 375 855 384C 857 393 854 402 848 408C 848 408 423 833 423 833C 340 916 234 904 175 845C 116 786 105 680 188 598C 188 598 641 152 641 152C 641 152 641 152 641 152C 673 121 710 108 745 108C 745 108 745 108 745 108"
        transform="">
    </path>    
</svg>