<?xml version="1.0" encoding="UTF-8" standalone="no"?>
<svg 
    role="img" 
    xmlns="http://www.w3.org/2000/svg" 
    width="1000mm"
    height="1000mm"
    viewBox="0 0 1000 1000"
    style="max-width:1.6em; height: auto;">
    
    <path 
        id="path" 
        style="opacity:1;vector-effect:none;fill:#000000;fill-opacity:1;"
        d=" M 525 163C 525 163 525 214 525 214C 567 218 599 232 622 254C 650 281 663 315 671 350C 688 420 690 495 720 535C 724 540 750 556 775 580C 801 605 825 643 825 700C 825 721 815 739 802 752C 789 765 771 775 750 775C 750 775 622 775 622 775C 615 810 594 840 563 858C 524 881 476 881 437 858C 406 840 385 810 378 775C 378 775 250 775 250 775C 229 775 211 765 198 752C 185 739 175 721 175 700C 175 643 199 605 225 580C 250 556 276 540 280 535C 310 495 312 420 329 350C 337 315 350 281 378 254C 401 232 433 218 475 214C 475 214 475 163 475 163C 475 149 486 137 500 137C 514 137 525 148 525 163C 525 163 525 163 525 163M 412 290C 395 307 385 331 377 362C 363 423 365 505 320 565C 302 589 278 598 259 616C 240 635 225 657 225 700C 225 704 228 711 233 717C 239 722 246 725 250 725C 417 725 583 725 750 725C 754 725 761 722 767 717C 772 711 775 704 775 700C 775 657 760 635 741 616C 722 598 698 589 680 565C 635 505 637 423 623 362C 615 331 605 307 588 290C 571 274 546 262 500 263C 500 263 500 263 500 263C 454 263 429 274 412 290C 412 290 412 290 412 290M 462 815C 486 828 514 828 538 815C 553 806 565 792 571 775C 571 775 429 775 429 775C 435 792 447 806 462 815C 462 815 462 815 462 815"
        transform="">
    </path>    
</svg>