<?xml version="1.0" encoding="UTF-8" standalone="no"?>
<svg 
    role="img" 
    xmlns="http://www.w3.org/2000/svg" 
    width="1000mm"
    height="1000mm"
    viewBox="0 0 1000 1000"
    style="max-width:1.6em; height: auto;">
    
    <path 
        id="path" 
        style="opacity:1;vector-effect:none;fill:#000000;fill-opacity:1;"
        d=" M 500 400C 431 400 375 456 375 525C 375 594 431 650 500 650C 569 650 625 594 625 525C 625 456 569 400 500 400C 500 400 500 400 500 400M 500 350C 596 350 675 429 675 525C 675 621 596 700 500 700C 404 700 325 621 325 525C 325 429 404 350 500 350C 500 350 500 350 500 350M 417 225C 417 225 373 334 373 334C 369 344 360 350 350 350C 350 350 175 350 175 350C 175 350 175 750 175 750C 175 750 825 750 825 750C 825 750 825 350 825 350C 825 350 650 350 650 350C 640 350 631 344 627 334C 627 334 583 225 583 225C 583 225 417 225 417 225M 400 175C 400 175 600 175 600 175C 610 175 619 181 623 191C 623 191 667 300 667 300C 667 300 850 300 850 300C 864 300 875 311 875 325C 875 325 875 775 875 775C 875 789 864 800 850 800C 850 800 150 800 150 800C 136 800 125 789 125 775C 125 775 125 325 125 325C 125 311 136 300 150 300C 150 300 333 300 333 300C 333 300 377 191 377 191C 381 181 390 175 400 175C 400 175 400 175 400 175"
        transform="">
    </path>    
</svg>