<?xml version="1.0" encoding="UTF-8" standalone="no"?>
<svg 
    role="img" 
    xmlns="http://www.w3.org/2000/svg" 
    width="1000mm"
    height="1000mm"
    viewBox="0 0 1000 1000"
    style="max-width:1.6em; height: auto;">
    
    <path 
        id="path" 
        style="opacity:1;vector-effect:none;fill:#000000;fill-opacity:1;"
        d="M 0 0C 0 0 0 35 0 35C 0 35 965 1000 965 1000C 965 1000 1000 1000 1000 1000C 1000 1000 1000 965 1000 965C 1000 965 35 0 35 0C 35 0 0 0 0 0C 0 0 0 0 0 0 M 315 155C 315 155 315 155 315 155C 319 155 324 155 328 155C 328 155 672 156 672 156C 741 156 795 157 828 245C 828 245 864 342 864 342C 871 362 885 362 899 362C 899 362 933 362 933 362C 954 362 969 381 969 397C 969 397 970 431 970 431C 970 452 956 466 936 466C 926 466 913 466 913 479C 913 548 913 706 844 706C 844 706 845 809 845 809C 846 830 831 844 810 844C 810 844 741 844 741 844C 720 844 706 830 706 810C 706 810 706 706 706 706C 706 706 293 706 293 706C 293 706 293 810 293 810C 293 830 277 845 256 845C 256 845 190 844 190 844C 169 844 156 834 156 813C 156 813 156 706 156 706C 87 706 94 548 94 479C 94 466 80 466 66 466C 45 467 32 452 31 431C 31 431 31 397 31 397C 31 376 46 362 66 362C 66 362 101 362 101 362C 118 362 128 362 135 342C 135 342 170 245 170 245C 198 159 252 155 315 155M 273 204C 273 204 273 204 273 204C 252 204 232 225 225 245C 225 245 183 362 183 362C 177 383 190 397 204 397C 204 397 796 397 796 397C 809 397 823 383 816 362C 816 362 775 245 775 245C 768 225 747 204 727 204C 727 204 273 204 273 204M 225 466C 225 466 225 466 225 466C 187 466 156 496 156 534C 156 572 187 603 225 603C 263 603 293 572 293 534C 293 496 263 466 225 466M 775 466C 775 466 775 466 775 466C 737 466 706 496 706 534C 706 572 737 603 775 603C 813 603 844 572 844 534C 844 496 813 466 775 466"
        transform="">
    </path>    
</svg>