<?xml version="1.0" encoding="UTF-8" standalone="no"?>
<svg 
    role="img" 
    xmlns="http://www.w3.org/2000/svg" 
    width="1000mm"
    height="1000mm"
    viewBox="0 0 1000 1000"
    style="max-width:1.6em; height: auto;">
    
    <path 
        id="path" 
        style="opacity:1;vector-effect:none;fill:#000000;fill-opacity:1;"
        d=" M 950 13C 971 13 987 29 987 50C 987 50 987 950 987 950C 987 971 971 987 950 987C 950 987 850 987 850 987C 829 987 812 971 812 950C 812 950 812 50 812 50C 812 29 829 13 850 13C 850 13 950 13 950 13M 837 50C 837 50 837 950 837 950C 837 957 843 962 850 962C 850 962 950 962 950 962C 957 962 962 957 962 950C 962 950 962 50 962 50C 962 43 957 38 950 38C 950 38 850 38 850 38C 843 38 837 43 837 50C 837 50 837 50 837 50M 750 437C 771 437 788 454 788 475C 788 475 788 950 788 950C 788 971 771 987 750 987C 750 987 650 987 650 987C 629 987 613 971 613 950C 613 950 613 475 613 475C 613 454 629 437 650 437C 650 437 750 437 750 437M 638 475C 638 475 638 950 638 950C 638 957 643 962 650 962C 650 962 750 962 750 962C 757 962 763 957 763 950C 763 950 763 475 763 475C 763 468 757 462 750 462C 750 462 650 462 650 462C 643 462 638 468 638 475C 638 475 638 475 638 475M 550 638C 571 638 588 654 588 675C 588 675 588 950 588 950C 588 971 571 987 550 987C 550 987 450 987 450 987C 429 987 412 971 412 950C 412 950 412 675 412 675C 412 654 429 638 450 638C 450 638 550 638 550 638M 437 675C 437 675 437 950 437 950C 437 957 443 962 450 962C 450 962 550 962 550 962C 557 962 563 957 563 950C 563 950 563 675 563 675C 563 668 557 663 550 663C 550 663 450 663 450 663C 443 663 437 668 437 675C 437 675 437 675 437 675M 350 738C 371 738 387 754 387 775C 387 775 387 950 387 950C 387 971 371 987 350 987C 350 987 250 987 250 987C 229 987 213 971 213 950C 213 950 213 775 213 775C 213 754 229 738 250 738C 250 738 350 738 350 738M 238 775C 238 775 238 950 238 950C 238 957 243 962 250 962C 250 962 350 962 350 962C 357 962 362 957 362 950C 362 950 362 775 362 775C 362 768 357 763 350 763C 350 763 250 763 250 763C 243 763 238 768 238 775C 238 775 238 775 238 775M 150 788C 171 788 188 804 188 825C 188 825 188 950 188 950C 188 971 171 987 150 987C 150 987 50 987 50 987C 29 987 13 971 13 950C 13 950 13 825 13 825C 13 804 29 788 50 788C 50 788 150 788 150 788M 38 825C 38 825 38 950 38 950C 38 957 43 962 50 962C 50 962 150 962 150 962C 157 962 163 957 163 950C 163 950 163 825 163 825C 163 818 157 812 150 812C 150 812 50 812 50 812C 43 812 38 818 38 825C 38 825 38 825 38 825"
        transform="">
    </path>    
</svg>