<?xml version="1.0" encoding="UTF-8" standalone="no"?>
<svg 
    role="img" 
    xmlns="http://www.w3.org/2000/svg" 
    width="1000mm"
    height="1000mm"
    viewBox="0 0 1000 1000"
    style="max-width:1.6em; height: auto;">
    
    <path 
        id="path" 
        style="opacity:1;vector-effect:none;fill:#000000;fill-opacity:1;"
        d=" M 250 200C 250 200 375 200 375 200C 390 200 400 210 400 225C 400 225 400 275 400 275C 400 290 390 300 375 300C 375 300 250 300 250 300C 215 300 200 315 200 350C 200 350 200 650 200 650C 200 685 215 700 250 700C 250 700 375 700 375 700C 390 700 400 710 400 725C 400 725 400 775 400 775C 400 790 390 800 375 800C 375 800 250 800 250 800C 150 800 100 750 100 650C 100 650 99 348 99 348C 99 248 150 200 250 200C 250 200 250 200 250 200M 650 246C 662 246 679 254 700 275C 700 275 875 450 875 450C 910 485 910 516 875 550C 875 550 700 725 700 725C 650 775 625 750 625 725C 625 725 625 600 625 600C 625 600 475 600 475 600C 444 600 425 588 425 550C 425 550 425 450 425 450C 425 415 442 401 475 400C 475 400 625 400 625 400C 625 400 625 275 625 275C 625 261 633 246 650 246C 650 246 650 246 650 246M 312 1000C 292 1000 333 1000 500 1000C 417 1000 333 1000 312 1000C 312 1000 312 1000 312 1000"
        transform="">
    </path>    
</svg>