<?xml version="1.0" encoding="UTF-8" standalone="no"?>
<svg 
    role="img" 
    xmlns="http://www.w3.org/2000/svg" 
    width="1000mm"
    height="1000mm"
    viewBox="0 0 1000 1000"
    style="max-width:1.6em; height: auto;">
    
    <path 
        id="path" 
        style="opacity:1;vector-effect:none;fill:#000000;fill-opacity:1;"
        d=" M 250 75C 250 75 250 75 250 75C 250 75 649 76 649 76C 655 76 661 79 666 83C 666 83 815 228 815 228C 820 233 823 240 823 246C 823 246 825 850 825 850C 825 891 791 925 750 925C 750 925 250 925 250 925C 209 925 175 891 175 850C 175 850 175 150 175 150C 175 110 207 77 247 75C 248 75 249 75 250 75C 250 75 250 75 250 75C 250 75 250 75 250 75C 250 75 250 75 250 75M 225 150C 225 150 225 850 225 850C 225 864 236 875 250 875C 250 875 750 875 750 875C 764 875 775 864 775 850C 775 850 773 275 773 275C 773 275 650 275 650 275C 636 275 625 264 625 250C 625 250 625 126 625 126C 625 126 250 125 250 125C 250 125 250 125 250 125C 236 125 225 136 225 150C 225 150 225 150 225 150M 675 225C 675 225 740 225 740 225C 740 225 675 161 675 161C 675 161 675 225 675 225"
        transform="">
    </path>    
</svg>