<?xml version="1.0" encoding="UTF-8" standalone="no"?>
<svg 
    role="img" 
    xmlns="http://www.w3.org/2000/svg" 
    width="1000mm"
    height="1000mm"
    viewBox="0 0 1000 1000"
    style="max-width:1.6em; height: auto;">
    
    <path 
        id="path" 
        style="opacity:1;vector-effect:none;fill:#000000;fill-opacity:1;"
        d=" M 552 42C 690 179 827 316 964 454C 997 476 978 514 953 533C 928 554 909 588 875 593C 875 593 875 834 875 834C 879 871 865 917 823 923C 759 928 694 924 629 925C 598 928 562 921 551 887C 548 833 551 779 550 725C 550 725 450 725 450 725C 450 725 450 846 450 846C 453 877 446 913 412 924C 346 927 279 924 213 925C 174 930 128 910 126 866C 124 775 126 684 125 593C 93 590 77 559 55 540C 34 520 1 492 27 463C 148 341 270 219 392 98C 425 69 451 23 500 21C 519 21 538 29 552 42C 552 42 552 42 552 42M 490 74C 490 74 484 77 484 77C 346 213 210 351 73 488C 73 488 125 540 125 540C 234 431 343 321 452 212C 470 191 501 168 527 192C 644 308 759 424 875 540C 875 540 927 488 927 488C 807 368 687 248 567 128C 545 109 528 80 500 71C 500 71 490 74 490 74M 175 561C 174 644 175 727 175 810C 178 831 167 859 185 873C 252 877 319 874 385 875C 408 880 398 852 400 839C 402 794 396 749 404 706C 419 666 464 676 497 675C 532 677 580 665 596 706C 604 745 598 786 600 826C 602 842 595 862 604 875C 604 875 763 875 763 875C 783 871 819 886 825 859C 825 759 825 660 825 561C 717 452 608 344 500 235C 392 344 283 452 175 561C 175 561 175 561 175 561"
        transform="">
    </path>    
</svg>