<?xml version="1.0" encoding="UTF-8" standalone="no"?>
<svg 
    role="img" 
    xmlns="http://www.w3.org/2000/svg" 
    width="1000mm"
    height="1000mm"
    viewBox="0 0 1000 1000"
    style="max-width:1.6em; height: auto;">
    
    <path 
        id="path" 
        style="opacity:1;vector-effect:none;fill:#000000;fill-opacity:1;"
        d=" M 250 250C 250 278 228 300 200 300C 172 300 150 278 150 250C 150 222 172 200 200 200C 228 200 250 222 250 250C 250 250 250 250 250 250M 322 224C 322 224 825 225 825 225C 834 225 842 230 847 237C 851 245 851 255 847 263C 842 270 834 275 825 275C 825 275 322 274 322 274C 313 274 305 269 300 261C 296 254 296 244 300 236C 305 229 313 224 322 224C 322 224 322 224 322 224C 322 224 322 224 322 224M 250 500C 250 528 228 550 200 550C 172 550 150 528 150 500C 150 472 172 450 200 450C 228 450 250 472 250 500C 250 500 250 500 250 500M 847 487C 851 495 851 505 847 513C 842 520 834 525 825 525C 825 525 328 526 328 526C 319 526 311 522 306 514C 302 506 302 496 306 489C 311 481 319 476 328 476C 328 476 825 475 825 475C 834 475 842 480 847 487C 847 487 847 487 847 487M 250 750C 250 778 228 800 200 800C 172 800 150 778 150 750C 150 722 172 700 200 700C 228 700 250 722 250 750C 250 750 250 750 250 750M 847 737C 851 745 851 755 847 763C 842 770 834 775 825 775C 825 775 325 776 325 776C 316 776 307 772 303 764C 298 756 298 746 303 739C 307 731 316 726 325 726C 325 726 825 725 825 725C 834 725 842 730 847 737C 847 737 847 737 847 737"
        transform="">
    </path>    
</svg>