<?xml version="1.0" encoding="UTF-8" standalone="no"?>
<svg 
    role="img" 
    xmlns="http://www.w3.org/2000/svg" 
    width="1000mm"
    height="1000mm"
    viewBox="0 0 1000 1000"
    style="max-width:1.6em; height: auto;">
    
    <path 
        id="path" 
        style="opacity:1;vector-effect:none;fill:#000000;fill-opacity:1;"
        d=" M 549 410C 549 410 549 410 549 410C 556 380 531 349 500 350C 459 348 434 402 461 432C 485 464 543 450 549 410M 423 337C 423 337 423 337 423 337C 442 314 471 300 500 300C 563 298 615 365 597 425C 583 486 506 520 452 488C 398 461 383 382 423 337M 635 190C 635 190 635 190 635 190C 595 164 548 150 500 150C 386 148 278 234 256 347C 242 407 253 471 283 525C 340 641 396 759 453 875C 470 912 524 917 544 880C 577 817 606 752 637 689C 670 621 703 553 735 484C 776 378 732 249 635 190M 328 155C 328 155 328 155 328 155C 378 119 439 100 500 100C 629 98 752 189 787 313C 811 390 801 476 762 546C 705 663 649 781 591 898C 567 944 506 973 457 946C 408 920 394 863 370 818C 320 714 268 610 219 505C 170 382 217 229 328 155"
        transform="">
    </path>    
</svg>