<?xml version="1.0" encoding="UTF-8" standalone="no"?>
<svg 
    role="img" 
    xmlns="http://www.w3.org/2000/svg" 
    width="1000mm"
    height="1000mm"
    viewBox="0 0 1000 1000"
    style="max-width:1.6em; height: auto;">
    
    <path 
        id="path" 
        style="opacity:1;vector-effect:none;fill:#000000;fill-opacity:1;"
        d=" M 100 423C 100 423 100 800 100 800C 100 800 900 800 900 800C 900 800 900 423 900 423C 900 423 614 621 614 621C 614 621 614 621 614 621C 574 647 538 663 500 663C 462 663 426 647 386 621C 386 621 386 621 386 621C 386 621 100 423 100 423M 100 225C 100 225 100 362 100 362C 100 362 414 579 414 579C 449 603 475 613 500 613C 525 613 551 603 586 579C 586 579 900 362 900 362C 900 362 900 225 900 225C 900 225 100 225 100 225M 100 175C 100 175 900 175 900 175C 927 175 950 198 950 225C 950 225 950 800 950 800C 950 827 927 850 900 850C 900 850 100 850 100 850C 73 850 50 827 50 800C 50 800 50 225 50 225C 50 198 73 175 100 175C 100 175 100 175 100 175"
        transform="">
    </path>    
</svg>