<?xml version="1.0" encoding="UTF-8" standalone="no"?>
<svg 
    role="img" 
    xmlns="http://www.w3.org/2000/svg" 
    width="1000mm"
    height="1000mm"
    viewBox="0 0 1000 1000"
    style="max-width:1.6em; height: auto;">
    
    <path 
        id="path" 
        style="opacity:1;vector-effect:none;fill:#000000;fill-opacity:1;"
        d="M 500 0C 224 0 0 224 0 500C 0 776 224 1000 500 1000C 776 1000 1000 776 1000 500C 1000 224 776 0 500 0C 500 0 500 0 500 0M 500 75C 735 75 925 265 925 500C 925 735 735 925 500 925C 265 925 75 735 75 500C 75 265 265 75 500 75C 500 75 500 75 500 75 M 300 262C 310 262 319 266 327 273C 327 273 500 447 500 447C 500 447 673 273 673 273C 680 266 690 262 699 262C 715 262 729 271 735 285C 741 299 738 316 727 327C 727 327 553 500 553 500C 553 500 727 673 727 673C 736 683 740 697 737 710C 733 723 723 733 710 737C 697 740 683 736 673 727C 673 727 500 553 500 553C 500 553 327 727 327 727C 317 736 303 740 290 737C 277 733 267 723 263 710C 260 697 264 683 273 673C 273 673 447 500 447 500C 447 500 273 327 273 327C 263 316 259 300 265 286C 271 271 284 262 300 262C 300 262 300 262 300 262"
        transform="">
    </path>    
</svg>