<?xml version="1.0" encoding="UTF-8" standalone="no"?>
<svg 
    role="img" 
    xmlns="http://www.w3.org/2000/svg" 
    width="1000mm"
    height="1000mm"
    viewBox="0 0 1000 1000"
    style="max-width:1.6em; height: auto;">
    
    <path 
        id="path" 
        style="opacity:1;vector-effect:none;fill:#000000;fill-opacity:1;"
        d=" M 500 551C 445 551 400 596 400 651C 400 677 411 703 429 722C 448 740 473 751 500 751C 527 751 552 740 571 722C 589 703 600 677 600 651C 600 624 589 599 571 580C 552 561 527 551 500 551C 500 551 500 551 500 551M 225 175C 211 175 200 186 200 200C 200 200 200 352 200 352C 200 366 211 377 225 377C 225 377 550 377 550 377C 564 377 575 366 575 352C 575 352 575 200 575 200C 575 186 564 175 550 175C 550 175 225 175 225 175M 200 125C 200 125 701 125 701 125C 701 125 876 301 876 301C 876 301 875 800 875 800C 875 842 842 875 800 875C 800 875 200 875 200 875C 158 875 125 842 125 800C 125 800 125 200 125 200C 125 158 158 125 200 125C 200 125 200 125 200 125"
        transform="">
    </path>    
</svg>