<?xml version="1.0" encoding="UTF-8" standalone="no"?>
<svg 
    role="img" 
    xmlns="http://www.w3.org/2000/svg" 
    width="1000mm"
    height="1000mm"
    viewBox="0 0 1000 1000"
    style="max-width:1.6em; height: auto;">
    
    <path 
        id="path" 
        style="opacity:1;vector-effect:none;fill:#000000;fill-opacity:1;"
        d=" M 900 250C 900 333 833 400 750 400C 700 400 656 376 629 338C 629 338 394 457 394 457C 398 470 400 485 400 500C 400 515 398 530 393 544C 393 544 629 662 629 662C 656 625 700 600 750 600C 833 600 900 667 900 750C 900 833 833 900 750 900C 667 900 600 833 600 750C 600 735 602 721 606 707C 606 707 371 589 371 589C 343 626 299 650 250 650C 167 650 100 583 100 500C 100 417 167 350 250 350C 300 350 344 374 371 412C 371 412 606 294 606 294C 602 280 600 265 600 250C 600 167 667 100 750 100C 833 100 900 167 900 250C 900 250 900 250 900 250M 650 250C 650 306 694 350 750 350C 806 350 850 306 850 250C 850 194 806 150 750 150C 694 150 650 194 650 250C 650 250 650 250 650 250M 150 500C 150 556 194 600 250 600C 306 600 350 556 350 500C 350 444 306 400 250 400C 194 400 150 444 150 500C 150 500 150 500 150 500M 650 750C 650 806 694 850 750 850C 806 850 850 806 850 750C 850 694 806 650 750 650C 694 650 650 694 650 750C 650 750 650 750 650 750"
        transform="">
    </path>    
</svg>