<?xml version="1.0" encoding="UTF-8" standalone="no"?>
<svg 
    role="img" 
    xmlns="http://www.w3.org/2000/svg" 
    width="1000mm"
    height="1000mm"
    viewBox="0 0 1000 1000"
    style="max-width:1.6em; height: auto;">
    
    <path 
        id="path" 
        style="opacity:1;vector-effect:none;fill:#000000;fill-opacity:1;"
        d=" M 554 113C 634 134 762 194 816 230C 833 242 858 266 858 303C 858 498 796 646 721 745C 683 795 642 832 604 858C 565 883 530 897 498 897C 466 897 430 883 392 857C 354 832 314 795 277 745C 203 646 143 498 143 303C 143 285 146 270 154 257C 163 245 173 238 183 231C 235 196 366 133 446 113C 463 108 482 106 500 106C 519 106 538 108 554 113C 554 113 554 113 554 113M 500 157C 485 157 469 158 459 161C 391 179 252 245 211 273C 202 278 198 282 196 285C 194 288 193 292 193 303C 193 488 250 625 317 715C 351 760 387 794 420 816C 453 838 482 847 498 847C 513 847 543 838 576 816C 609 794 646 760 681 715C 749 624 807 488 807 303C 807 285 800 280 788 272C 744 242 611 179 541 161C 531 158 516 157 500 157C 500 157 500 157 500 157"
        transform="">
    </path>    
</svg>