<?xml version="1.0" encoding="UTF-8" standalone="no"?>
<svg 
    role="img" 
    xmlns="http://www.w3.org/2000/svg" 
    width="1000mm"
    height="1000mm"
    viewBox="0 0 1000 1000"
    style="max-width:1.6em; height: auto;">
    
    <path 
        id="path" 
        style="opacity:1;vector-effect:none;fill:#000000;fill-opacity:1;"
        d=" M 757 638C 729 638 707 660 707 688C 707 715 729 738 757 738C 785 738 807 715 807 688C 807 660 785 638 757 638C 757 638 757 638 757 638M 282 634C 253 634 230 657 230 686C 230 715 253 738 282 738C 310 738 333 715 333 686C 333 657 310 634 282 634C 282 634 282 634 282 634M 632 538C 632 538 632 638 632 638C 632 638 670 638 670 638C 688 608 720 588 757 588C 793 588 826 608 843 638C 843 638 868 638 868 638C 868 638 868 538 868 538C 868 538 632 538 632 538M 632 387C 632 387 632 487 632 487C 632 487 840 487 840 487C 840 487 757 387 757 387C 757 387 632 387 632 387M 132 262C 132 262 132 638 132 638C 132 638 192 638 192 638C 210 606 243 584 282 584C 320 584 354 606 371 638C 371 638 582 638 582 638C 582 638 582 362 582 362C 582 362 582 337 582 337C 582 337 582 262 582 262C 582 262 132 262 132 262M 132 213C 132 213 582 213 582 213C 609 213 632 235 632 262C 632 262 632 337 632 337C 632 337 757 337 757 337C 771 337 786 344 795 355C 795 355 907 490 907 490C 914 499 918 510 918 522C 918 522 918 638 918 638C 918 665 896 688 868 688C 868 688 857 688 857 688C 857 742 812 787 757 787C 702 787 657 742 657 688C 657 688 383 688 383 688C 382 743 337 787 282 787C 226 787 181 743 180 688C 180 688 132 688 132 688C 104 688 82 665 82 638C 82 638 82 262 82 262C 82 235 104 213 132 213C 132 213 132 213 132 213"
        transform="">
    </path>    
</svg>