<?xml version="1.0" encoding="UTF-8" standalone="no"?>
<svg 
    role="img" 
    xmlns="http://www.w3.org/2000/svg" 
    width="1000mm"
    height="1000mm"
    viewBox="0 0 1000 1000"
    style="max-width:1.6em; height: auto;">
    
    <path 
        id="path" 
        style="opacity:1;vector-effect:none;fill:#000000;fill-opacity:1;"
        d=" M 614 126C 702 179 738 300 694 393C 653 487 540 540 442 510C 342 484 272 377 290 274C 303 173 398 91 500 93C 540 93 580 105 614 126C 614 126 614 126 614 126M 339 282C 323 370 394 461 483 467C 573 479 660 404 662 314C 669 225 590 141 500 143C 422 142 350 204 339 282C 339 282 339 282 339 282M 447 543C 506 562 566 540 624 526C 696 521 775 550 815 614C 854 673 850 745 850 812C 856 866 815 920 760 924C 595 926 429 925 263 925C 209 931 155 890 151 835C 151 769 143 699 174 637C 208 561 295 523 375 525C 399 529 423 537 447 543C 447 543 447 543 447 543M 541 597C 486 608 432 591 379 577C 327 571 269 590 236 632C 194 683 200 751 200 812C 196 841 213 873 245 875C 409 875 573 875 737 875C 766 879 798 862 800 830C 799 776 806 719 786 666C 764 604 696 573 633 575C 602 582 572 592 541 597C 541 597 541 597 541 597"
        transform="">
    </path>    
</svg>