<?xml version="1.0" encoding="UTF-8" standalone="no"?>
<svg 
    role="img" 
    xmlns="http://www.w3.org/2000/svg" 
    width="1000mm"
    height="1000mm"
    viewBox="0 0 1000 1000"
    style="max-width:1.6em; height: auto;">
    
    <path 
        id="path" 
        style="opacity:1;vector-effect:none;fill:#000000;fill-opacity:1;"
        d="M 500 0C 224 0 0 224 0 500C 0 776 224 1000 500 1000C 776 1000 1000 776 1000 500C 1000 224 776 0 500 0C 500 0 500 0 500 0M 500 50C 749 50 950 251 950 500C 950 749 749 950 500 950C 251 950 50 749 50 500C 50 251 251 50 500 50C 500 50 500 50 500 50 M 500 650C 487 650 474 655 465 665C 455 674 450 687 450 700C 450 728 472 750 500 750C 528 750 550 728 550 700C 550 687 545 674 535 665C 526 655 513 650 500 650C 500 650 500 650 500 650M 500 600C 527 600 552 611 571 629C 589 648 600 673 600 700C 600 755 555 800 500 800C 445 800 400 755 400 700C 400 673 411 648 429 629C 448 611 473 600 500 600C 500 600 500 600 500 600M 475 275C 454 275 453 279 452 279C 451 280 450 288 450 300C 450 321 456 378 462 428C 469 478 475 521 475 521C 475 521 475 523 475 523C 475 523 475 525 475 525C 475 525 525 525 525 525C 525 525 525 523 525 523C 525 523 525 521 525 521C 525 521 531 478 538 428C 544 378 550 321 550 300C 550 288 549 280 548 279C 547 279 546 275 525 275C 525 275 475 275 475 275M 475 225C 475 225 525 225 525 225C 554 225 578 234 590 252C 601 270 600 287 600 300C 600 329 594 384 587 434C 581 485 575 529 575 529C 575 529 575 525 575 525C 575 525 575 536 569 549C 563 561 546 575 525 575C 525 575 475 575 475 575C 454 575 437 561 431 549C 425 536 425 525 425 525C 425 525 425 529 425 529C 425 529 419 485 413 434C 406 384 400 329 400 300C 400 287 399 270 410 252C 422 234 446 225 475 225C 475 225 475 225 475 225"
        transform="">
    </path>    
</svg>